<svg width="40" height="40" viewBox="0 0 40 40" fill="none" xmlns="http://www.w3.org/2000/svg">
<path fill-rule="evenodd" clip-rule="evenodd" d="M19.3275 3.77637C2.35871 7.02643 0.25221 7.44508 0.133424 7.59108C0.0600791 7.68128 0 7.81996 0 7.89918C0 8.09246 0.266239 8.34817 0.467443 8.34817C0.606052 8.34817 7.19005 7.11808 7.68143 7.00036L7.85298 6.95926V8.14933V9.33933H6.14789C4.31083 9.33933 3.77317 9.40062 3.42306 9.64994C3.0972 9.88194 2.89722 10.3244 2.89722 10.8132V11.2259L2.59812 11.2738C2.43366 11.3001 2.19723 11.4073 2.07265 11.512C1.79696 11.744 1.26014 12.9329 0.798793 14.3332C-0.0101402 16.7884 -0.17307 18.7803 0.272567 20.767C0.631593 22.3675 1.72255 24.8604 2.20326 25.1787L2.46233 25.3503H8.32553C14.5632 25.3503 14.3997 25.3594 14.7319 24.9923C14.9347 24.7681 15.7295 22.9671 16.0375 22.0337C17.0299 19.0261 16.8146 16.4145 15.268 12.6997C14.8456 11.6849 14.577 11.3501 14.1275 11.2782L13.8195 11.229L13.7807 10.7464C13.733 10.1525 13.5398 9.81782 13.0984 9.56516C12.7773 9.38126 12.731 9.37691 10.8074 9.35175L8.84413 9.32606V8.05273V6.77941L19.3465 4.77431C25.1229 3.67153 29.9261 2.75136 30.0205 2.72948L30.192 2.68968V4.02873V5.3677L28.1465 5.39027L26.1009 5.41284L25.821 5.62647C25.4593 5.90247 25.3053 6.20949 25.256 6.75287L25.2163 7.1915L24.9006 7.27094C24.4921 7.37379 24.2357 7.65017 23.9367 8.31005C23.2896 9.73823 22.7745 11.3944 22.5291 12.8366C22.1858 14.8532 22.5751 17.45 23.5933 19.9361C24.1423 21.2765 24.283 21.5155 24.6267 21.6908C24.9257 21.8433 25.0278 21.8455 30.7961 21.8254C37.639 21.8015 36.8828 21.9212 37.4475 20.7737C38.2097 19.2252 38.8957 16.7226 39.0038 15.0956C39.1245 13.2811 38.589 10.8506 37.5457 8.47725C37.1653 7.6122 36.9746 7.39682 36.4779 7.27178L36.139 7.18647V6.76378C36.139 6.1973 35.8832 5.75402 35.4297 5.53452C35.1209 5.38501 34.9737 5.37472 33.1414 5.37472H31.1832V3.94151V2.50823L34.7094 1.83783C36.6489 1.46912 38.363 1.13525 38.5187 1.09599C38.7955 1.02607 39.0362 0.790406 39.0362 0.589126C39.0362 0.438394 38.6819 0.113144 38.525 0.119853C38.4497 0.123055 29.8108 1.76852 19.3275 3.77637ZM35.0563 6.45736C35.1066 6.50768 35.1478 6.69638 35.1478 6.87669V7.20454H30.6876H26.2274V6.87669C26.2274 6.69638 26.2686 6.50768 26.3189 6.45736C26.451 6.32531 34.9243 6.32531 35.0563 6.45736ZM36.6585 8.90093C37.8399 11.612 38.2564 13.9316 37.9278 15.9724C37.7131 17.3066 37.1665 19.0652 36.5239 20.4898L36.3605 20.8519H30.6984H25.0362L24.7235 20.1086C23.3551 16.856 23.0746 14.5891 23.7133 11.9443C23.9414 10.9996 24.5623 9.23289 24.9034 8.55784L25.0864 8.19569H30.7187H36.3511L36.6585 8.90093ZM26.2766 9.23464C25.7055 9.54404 24.7788 12.6858 24.7788 14.3121C24.7788 15.0328 24.7325 15.0194 27.2186 15.0194C29.1952 15.0194 29.3481 15.0096 29.4978 14.8742C29.6552 14.7317 29.6583 14.6767 29.6583 12.0459C29.6583 9.5435 29.649 9.3545 29.5189 9.23678C29.3193 9.05616 26.6093 9.05433 26.2766 9.23464ZM31.903 9.21879C31.7613 9.3224 31.755 9.44241 31.755 12.0371C31.755 14.536 31.7656 14.7577 31.891 14.8832C32.0132 15.0055 32.2265 15.0218 33.9877 15.0435C36.103 15.0694 36.4718 15.0248 36.565 14.7318C36.8585 13.8088 35.9431 10.0466 35.2574 9.35839L35.0106 9.1106H33.5308C32.3731 9.1106 32.0188 9.13416 31.903 9.21879ZM28.6672 12.0459V14.0664H27.2098H25.7524L25.8052 13.628C25.9324 12.5721 26.5277 10.4249 26.7777 10.1208C26.8323 10.0543 27.1298 10.0255 27.7616 10.0255H28.6672V12.0459ZM34.8636 10.6354C35.161 11.3794 35.5176 12.8139 35.579 13.5136L35.6276 14.0664H34.1679H32.708V12.0436V10.0209L33.6716 10.0423L34.6351 10.0636L34.8636 10.6354ZM12.6393 10.4492C12.7712 10.5415 12.8087 10.643 12.8087 10.9066V11.2454H8.34856H3.88837V10.868C3.88837 10.5889 3.92313 10.4703 4.02179 10.4128C4.10787 10.3627 5.63089 10.3343 8.31249 10.3328C11.9544 10.3308 12.4909 10.3452 12.6393 10.4492ZM14.2413 12.7893C15.3431 15.3241 15.8282 17.6158 15.6336 19.3681C15.48 20.7523 15.1102 21.9769 14.3511 23.6157L14.0067 24.3591H8.33567H2.66468L2.3934 23.7682C0.930845 20.5821 0.67528 18.6047 1.37115 15.8581C1.59309 14.982 2.13464 13.4256 2.47872 12.6749L2.6797 12.2365H8.3404H14.0011L14.2413 12.7893ZM3.99656 13.2199C3.75578 13.3292 3.64561 13.4453 3.50967 13.7329C2.98154 14.8499 2.53552 16.6117 2.46492 17.8596C2.39394 19.1154 2.20341 19.0221 4.83865 19.0221C6.5715 19.0221 7.0137 19.0013 7.13317 18.9139C7.27407 18.811 7.28223 18.6772 7.30304 16.1305L7.32492 13.4551L7.13493 13.2651C6.94699 13.0772 6.93105 13.0752 5.62632 13.0769C4.50753 13.0783 4.26051 13.1 3.99656 13.2199ZM9.58452 13.2287L9.37783 13.3912V16.0542C9.37783 18.6155 9.38362 18.7229 9.53031 18.8696C9.67563 19.015 9.78443 19.0221 11.8439 19.0221C14.4829 19.0221 14.3051 19.103 14.2308 17.9359C14.1165 16.1392 13.3552 13.6835 12.7843 13.2693C12.5898 13.1282 12.4373 13.1111 11.1803 13.0897C9.85907 13.0673 9.78108 13.0741 9.58452 13.2287ZM6.32813 16.0487V18.031H4.869H3.40987L3.46103 17.5314C3.55138 16.6497 3.93045 15.2154 4.3013 14.3523L4.42412 14.0664H5.37609H6.32813V16.0487ZM12.4087 14.4285C12.7596 15.262 13.1144 16.6276 13.2309 17.5926L13.2837 18.031H11.8264H10.369V16.0487V14.0664H11.3126H12.2563L12.4087 14.4285ZM19.3937 22.2285C19.2737 22.2731 18.508 23.722 16.4676 27.7652C14.9476 30.777 13.2927 34.0426 12.79 35.0218L11.8759 36.8023L9.32164 31.7433C7.91679 28.961 6.71468 26.6244 6.65025 26.5511C6.48702 26.365 6.15628 26.3836 5.9733 26.5892C5.88928 26.6836 4.50746 29.4247 2.90255 32.6805C0.713706 37.1212 -0.002516 38.6409 0.0362152 38.7629C0.112229 39.0025 0.403094 39.1667 0.644325 39.1062C0.818006 39.0625 0.956767 38.8365 1.60574 37.5397C2.02294 36.7062 2.37823 36.0242 2.39531 36.0242C2.41247 36.0242 2.63776 36.4034 2.89607 36.8668C3.59971 38.1296 3.84461 38.1502 4.48169 37.0001C5.10954 35.8668 5.00852 35.8801 5.5564 36.8584C6.26866 38.1303 6.5121 38.1519 7.15018 37.0001C7.77803 35.8668 7.67701 35.8801 8.22489 36.8584C8.71155 37.7274 8.88248 37.8896 9.21932 37.8014C9.37043 37.7619 9.4681 37.6157 10.199 36.3342L10.3919 35.9961L10.8675 36.9441L11.3431 37.8921L11.1947 38.1837C10.9952 38.5757 11.0348 38.9221 11.2959 39.068C11.7253 39.3078 11.7609 39.2551 13.4852 35.8178C14.3643 34.0653 15.1853 32.4475 15.3096 32.2228L15.5355 31.8141L15.9736 32.604C16.4592 33.4792 16.5544 33.5844 16.8603 33.5844C17.109 33.5844 17.2902 33.3662 17.7619 32.4984C17.9384 32.1736 18.1119 31.8899 18.1473 31.868C18.1828 31.846 18.4072 32.1804 18.6461 32.611C19.1276 33.479 19.2232 33.5844 19.5288 33.5844C19.7775 33.5844 19.9587 33.3662 20.4304 32.4984C20.6069 32.1736 20.7794 31.8905 20.8138 31.8692C20.8482 31.8479 21.0901 32.2109 21.3514 32.6757C22.0817 33.975 22.2984 33.9598 23.0634 32.5552C23.2232 32.2616 23.3972 31.9579 23.4501 31.8801C23.5347 31.7558 23.7615 32.1747 25.3344 35.3603C27.0781 38.8915 27.2297 39.1501 27.5566 39.1501C27.7398 39.1501 27.981 38.8677 27.981 38.6533C27.981 38.5478 27.7922 38.085 27.5615 37.6251L27.1421 36.7887L27.6173 35.8346C27.8787 35.3099 28.1103 34.8814 28.132 34.8824C28.1538 34.8834 28.3432 35.1983 28.5528 35.5823C29.0566 36.5048 29.1644 36.6341 29.4297 36.6341C29.7101 36.6341 29.8077 36.5305 30.2012 35.8143C30.3796 35.4894 30.5838 35.1269 30.6548 35.0087L30.7838 34.7937L31.1464 35.4662C31.6605 36.4198 31.8335 36.6341 32.0887 36.6341C32.3503 36.6341 32.5205 36.4503 32.9002 35.7574C33.061 35.4638 33.2491 35.1301 33.3182 35.0158L33.4437 34.808L33.8104 35.4733C34.343 36.4399 34.503 36.6341 34.7666 36.6341C35.0307 36.6341 35.19 36.4403 35.7285 35.4632L36.1006 34.7879L37.1083 36.8356C37.7287 38.0964 38.1884 38.9389 38.3044 39.028C38.4693 39.1546 38.5219 39.1606 38.7273 39.0755C39.1546 38.8985 39.1234 38.7412 38.3437 37.1421C33.9308 28.0922 32.5685 25.3837 32.3832 25.2923C31.9388 25.073 31.993 24.9842 29.2419 30.4336C27.8271 33.2359 26.6456 35.5543 26.6163 35.5857C26.5871 35.6171 25.0923 32.6752 23.2945 29.0481C21.4968 25.4209 19.9717 22.407 19.9055 22.3504C19.7258 22.1971 19.575 22.1611 19.3937 22.2285ZM21.3185 27.2477L23.0045 30.6652L22.5875 31.4067L22.1704 32.1483L21.6767 31.2651C20.9505 29.966 20.7251 29.9641 20.0088 31.2517C19.7615 31.696 19.5358 32.0596 19.5072 32.0596C19.4786 32.0596 19.247 31.6862 18.9927 31.2297C18.5316 30.4023 18.4399 30.306 18.1132 30.306C17.8878 30.306 17.7913 30.4267 17.3044 31.3178C17.0805 31.7276 16.8652 32.0521 16.826 32.039C16.7867 32.0259 16.598 31.724 16.4066 31.368L16.0587 30.7208L17.8034 27.2731C18.7631 25.3769 19.5672 23.8265 19.5904 23.8278C19.6135 23.8291 20.3911 25.3681 21.3185 27.2477ZM33.9018 30.2976L35.585 33.72L35.2001 34.4146C34.9885 34.7967 34.7957 35.1092 34.7718 35.1092C34.748 35.1091 34.5437 34.7747 34.3177 34.3659C33.8016 33.4319 33.7343 33.3557 33.4257 33.3557C33.137 33.3557 33.073 33.432 32.5145 34.4422C32.3116 34.8091 32.1263 35.1092 32.1027 35.1092C32.0793 35.1091 31.8752 34.7747 31.6493 34.3659C31.1331 33.4319 31.0659 33.3557 30.7572 33.3557C30.4699 33.3557 30.4148 33.4217 29.8486 34.4422C29.6451 34.8091 29.459 35.1085 29.435 35.1075C29.4111 35.1064 29.2228 34.8062 29.0167 34.4403L28.6418 33.7751L30.389 30.3261C31.35 28.4291 32.1547 26.8766 32.1775 26.8761C32.2001 26.8756 32.9761 28.4152 33.9018 30.2976ZM8.12425 31.5347C9.64018 34.566 9.82789 34.9812 9.75005 35.1308C9.70163 35.2238 9.52559 35.5355 9.35884 35.8235L9.05563 36.3471L8.59665 35.5327C8.34421 35.0848 8.06005 34.6675 7.96528 34.6053C7.69851 34.4306 7.42053 34.5424 7.21224 34.9084C7.1135 35.0818 6.88752 35.4763 6.71003 35.7852L6.38737 36.3468L5.96834 35.5946C5.4781 34.7146 5.29893 34.4994 5.05686 34.4994C4.80839 34.4994 4.6556 34.6773 4.23405 35.4579C4.03186 35.8322 3.8318 36.1828 3.78941 36.2368C3.73199 36.31 3.60894 36.1506 3.30801 35.6136L2.90362 34.8921L4.59613 31.4623C5.52705 29.5759 6.31608 28.0494 6.34955 28.0701C6.38302 28.0908 7.18159 29.6499 8.12425 31.5347Z" fill="black"/>
</svg>
